<svg xmlns="http://www.w3.org/2000/svg" width="200" height="200" class="icon" p-id="2185" t="1608711114122" version="1.1" viewBox="0 0 1024 1024"><path d="M512 1024c-56.096-89.344-97.184-137.728-123.296-145.184C201.216 825.248 64 652.672 64 448 64 200.576 264.576 0 512 0s448 200.576 448 448c0 203.168-135.232 374.72-320.608 429.632-26.88 7.968-69.376 56.768-127.392 146.368z m15.52-954.624a18.56 18.56 0 0 0-2.56-1.888c-8.544-5.344-21.216-4.48-28.32 1.984L451.52 110.4 332.352 158.72c-7.616 3.104-12.352 9.088-12.352 15.584 0 9.792 10.528 17.696 23.488 17.696h337.024c8.64 0 16.576-3.584 20.672-9.28 6.144-8.64 1.888-19.36-9.536-24l-117.44-47.616-46.72-41.728zM384 224a32 32 0 0 0-32 32v64a32 32 0 0 0 32 32h256a32 32 0 0 0 32-32V256a32 32 0 0 0-32-32h-256z m256 512h137.536a64 64 0 0 0 61.184-82.688l-39.104-128A64 64 0 0 0 738.4 480H285.6a64 64 0 0 0-61.216 45.312l-39.104 128A64 64 0 0 0 246.464 736H384c0-106.656 42.656-160 128-160s128 53.344 128 160zM304 384a16 16 0 0 0-16 16v32a16 16 0 0 0 32 0v-32a16 16 0 0 0-16-16z m69.344 0a16 16 0 0 0-16 16v32a16 16 0 1 0 32 0v-32a16 16 0 0 0-16-16z m69.312 0a16 16 0 0 0-16 16v32a16 16 0 0 0 32 0v-32a16 16 0 0 0-16-16zM512 384a16 16 0 0 0-16 16v32a16 16 0 0 0 32 0v-32a16 16 0 0 0-16-16z m69.344 0a16 16 0 0 0-16 16v32a16 16 0 1 0 32 0v-32a16 16 0 0 0-16-16z m69.312 0a16 16 0 0 0-16 16v32a16 16 0 0 0 32 0v-32a16 16 0 0 0-16-16z m69.344 0a16 16 0 0 0-16 16v32a16 16 0 0 0 32 0v-32a16 16 0 0 0-16-16z" p-id="2186"/></svg>